<svg xmlns="http://www.w3.org/2000/svg" xmlns:xlink="http://www.w3.org/1999/xlink" class="httpgd" width="1284.00" height="975.00" viewBox="0 0 1027.20 780.00">
<defs>
  <style type='text/css'><![CDATA[
    .httpgd line, .httpgd polyline, .httpgd polygon, .httpgd path, .httpgd rect, .httpgd circle {
      fill: none;
      stroke: #000000;
      stroke-linecap: round;
      stroke-linejoin: round;
      stroke-miterlimit: 10.00;
    }
  ]]></style>
<clipPath id="c0"><rect x="0.00" y="0.00" width="1027.20" height="780.00"/></clipPath>
<clipPath id="c1"><rect x="59.04" y="59.04" width="937.92" height="647.52"/></clipPath>
</defs>
<rect width="100%" height="100%" style="stroke: none;fill: #FFFFFF;"/>
<g clip-path="url(#c0)">
<line x1="93.78" y1="706.56" x2="962.22" y2="706.56" style="stroke-width: 0.75;"/>
<line x1="93.78" y1="706.56" x2="93.78" y2="713.76" style="stroke-width: 0.75;"/>
<line x1="310.89" y1="706.56" x2="310.89" y2="713.76" style="stroke-width: 0.75;"/>
<line x1="528.00" y1="706.56" x2="528.00" y2="713.76" style="stroke-width: 0.75;"/>
<line x1="745.11" y1="706.56" x2="745.11" y2="713.76" style="stroke-width: 0.75;"/>
<line x1="962.22" y1="706.56" x2="962.22" y2="713.76" style="stroke-width: 0.75;"/>
<g><text x="93.78" y="732.48" text-anchor="middle" style="font-family: Arial;font-size: 12.00px;" textLength="10.67px" lengthAdjust="spacingAndGlyphs">-2</text></g>
<g><text x="310.89" y="732.48" text-anchor="middle" style="font-family: Arial;font-size: 12.00px;" textLength="10.67px" lengthAdjust="spacingAndGlyphs">-1</text></g>
<g><text x="528.00" y="732.48" text-anchor="middle" style="font-family: Arial;font-size: 12.00px;" textLength="6.67px" lengthAdjust="spacingAndGlyphs">0</text></g>
<g><text x="745.11" y="732.48" text-anchor="middle" style="font-family: Arial;font-size: 12.00px;" textLength="6.67px" lengthAdjust="spacingAndGlyphs">1</text></g>
<g><text x="962.22" y="732.48" text-anchor="middle" style="font-family: Arial;font-size: 12.00px;" textLength="6.67px" lengthAdjust="spacingAndGlyphs">2</text></g>
<line x1="59.04" y1="682.58" x2="59.04" y2="83.02" style="stroke-width: 0.75;"/>
<line x1="59.04" y1="682.58" x2="51.84" y2="682.58" style="stroke-width: 0.75;"/>
<line x1="59.04" y1="532.69" x2="51.84" y2="532.69" style="stroke-width: 0.75;"/>
<line x1="59.04" y1="382.80" x2="51.84" y2="382.80" style="stroke-width: 0.75;"/>
<line x1="59.04" y1="232.91" x2="51.84" y2="232.91" style="stroke-width: 0.75;"/>
<line x1="59.04" y1="83.02" x2="51.84" y2="83.02" style="stroke-width: 0.75;"/>
<g><text transform="translate(41.76,682.58) rotate(-90.00)" text-anchor="middle" style="font-family: Arial;font-size: 12.00px;" textLength="10.67px" lengthAdjust="spacingAndGlyphs">-2</text></g>
<g><text transform="translate(41.76,532.69) rotate(-90.00)" text-anchor="middle" style="font-family: Arial;font-size: 12.00px;" textLength="10.67px" lengthAdjust="spacingAndGlyphs">-1</text></g>
<g><text transform="translate(41.76,382.80) rotate(-90.00)" text-anchor="middle" style="font-family: Arial;font-size: 12.00px;" textLength="6.67px" lengthAdjust="spacingAndGlyphs">0</text></g>
<g><text transform="translate(41.76,232.91) rotate(-90.00)" text-anchor="middle" style="font-family: Arial;font-size: 12.00px;" textLength="6.67px" lengthAdjust="spacingAndGlyphs">1</text></g>
<g><text transform="translate(41.76,83.02) rotate(-90.00)" text-anchor="middle" style="font-family: Arial;font-size: 12.00px;" textLength="6.67px" lengthAdjust="spacingAndGlyphs">2</text></g>
<polygon points="59.04,706.56 996.96,706.56 996.96,59.04 59.04,59.04" style="stroke-width: 0.75;" />
<g><text x="528.00" y="761.28" text-anchor="middle" style="font-family: Arial;font-size: 12.00px;" textLength="29.35px" lengthAdjust="spacingAndGlyphs">Index</text></g>
<g><text transform="translate(12.96,382.80) rotate(-90.00)" text-anchor="middle" style="font-family: Arial;font-size: 12.00px;" textLength="30.69px" lengthAdjust="spacingAndGlyphs">NULL</text></g>
</g><g clip-path="url(#c1)">
<polyline points="93.78,539.62 962.22,224.85" style="stroke-width: 0.75;stroke: #000000;stroke-opacity: 0.40;"/>
<polyline points="93.78,431.21 962.22,345.44" style="stroke-width: 0.75;stroke: #000000;stroke-opacity: 0.40;"/>
<polyline points="93.78,459.97 962.22,387.85" style="stroke-width: 0.75;stroke: #000000;stroke-opacity: 0.40;"/>
<polyline points="93.78,525.57 962.22,275.95" style="stroke-width: 0.75;stroke: #000000;stroke-opacity: 0.40;"/>
<polyline points="93.78,340.55 962.22,407.39" style="stroke-width: 0.75;stroke: #000000;stroke-opacity: 0.40;"/>
<polyline points="93.78,414.33 962.22,327.90" style="stroke-width: 0.75;stroke: #000000;stroke-opacity: 0.40;"/>
<polyline points="93.78,367.99 962.22,470.04" style="stroke-width: 0.75;stroke: #000000;stroke-opacity: 0.40;"/>
<polyline points="93.78,552.78 962.22,234.62" style="stroke-width: 0.75;stroke: #000000;stroke-opacity: 0.40;"/>
<polyline points="93.78,250.34 962.22,612.79" style="stroke-width: 0.75;stroke: #000000;stroke-opacity: 0.40;"/>
<polyline points="93.78,548.23 962.22,232.74" style="stroke-width: 0.75;stroke: #000000;stroke-opacity: 0.40;"/>
<polyline points="93.78,331.37 962.22,368.17" style="stroke-width: 0.75;stroke: #000000;stroke-opacity: 0.40;"/>
<polyline points="93.78,472.35 962.22,247.94" style="stroke-width: 0.75;stroke: #000000;stroke-opacity: 0.40;"/>
<polyline points="93.78,617.78 962.22,162.10" style="stroke-width: 0.75;stroke: #000000;stroke-opacity: 0.40;"/>
<polyline points="93.78,331.71 962.22,374.69" style="stroke-width: 0.75;stroke: #000000;stroke-opacity: 0.40;"/>
<polyline points="93.78,288.39 962.22,432.76" style="stroke-width: 0.75;stroke: #000000;stroke-opacity: 0.40;"/>
<polyline points="93.78,235.71 962.22,524.53" style="stroke-width: 0.75;stroke: #000000;stroke-opacity: 0.40;"/>
<polyline points="93.78,580.02 962.22,242.83" style="stroke-width: 0.75;stroke: #000000;stroke-opacity: 0.40;"/>
<polyline points="93.78,356.36 962.22,420.94" style="stroke-width: 0.75;stroke: #000000;stroke-opacity: 0.40;"/>
<polyline points="93.78,179.66 962.22,530.45" style="stroke-width: 0.75;stroke: #000000;stroke-opacity: 0.40;"/>
<polyline points="93.78,303.04 962.22,433.61" style="stroke-width: 0.75;stroke: #000000;stroke-opacity: 0.40;"/>
<polyline points="93.78,273.60 962.22,527.75" style="stroke-width: 0.75;stroke: #000000;stroke-opacity: 0.40;"/>
<polyline points="93.78,547.56 962.22,349.06" style="stroke-width: 0.75;stroke: #000000;stroke-opacity: 0.40;"/>
<polyline points="93.78,482.10 962.22,323.96" style="stroke-width: 0.75;stroke: #000000;stroke-opacity: 0.40;"/>
<polyline points="93.78,421.91 962.22,470.74" style="stroke-width: 0.75;stroke: #000000;stroke-opacity: 0.40;"/>
<polyline points="93.78,363.75 962.22,477.71" style="stroke-width: 0.75;stroke: #000000;stroke-opacity: 0.40;"/>
<polyline points="93.78,308.75 962.22,479.25" style="stroke-width: 0.75;stroke: #000000;stroke-opacity: 0.40;"/>
<polyline points="93.78,294.57 962.22,512.26" style="stroke-width: 0.75;stroke: #000000;stroke-opacity: 0.40;"/>
<polyline points="93.78,603.32 962.22,214.57" style="stroke-width: 0.75;stroke: #000000;stroke-opacity: 0.40;"/>
<polyline points="93.78,261.21 962.22,510.49" style="stroke-width: 0.75;stroke: #000000;stroke-opacity: 0.40;"/>
<polyline points="93.78,165.62 962.22,615.20" style="stroke-width: 0.75;stroke: #000000;stroke-opacity: 0.40;"/>
<polyline points="93.78,700.35 962.22,176.39" style="stroke-width: 0.75;stroke: #000000;stroke-opacity: 0.40;"/>
<polyline points="93.78,482.80 962.22,287.47" style="stroke-width: 0.75;stroke: #000000;stroke-opacity: 0.40;"/>
<polyline points="93.78,511.05 962.22,196.48" style="stroke-width: 0.75;stroke: #000000;stroke-opacity: 0.40;"/>
<polyline points="93.78,211.71 962.22,542.80" style="stroke-width: 0.75;stroke: #000000;stroke-opacity: 0.40;"/>
<polyline points="93.78,180.54 962.22,667.80" style="stroke-width: 0.75;stroke: #000000;stroke-opacity: 0.40;"/>
<polyline points="93.78,253.81 962.22,597.86" style="stroke-width: 0.75;stroke: #000000;stroke-opacity: 0.40;"/>
<polyline points="93.78,361.74 962.22,382.15" style="stroke-width: 0.75;stroke: #000000;stroke-opacity: 0.40;"/>
<polyline points="93.78,659.70 962.22,211.37" style="stroke-width: 0.75;stroke: #000000;stroke-opacity: 0.40;"/>
<polyline points="93.78,453.05 962.22,332.01" style="stroke-width: 0.75;stroke: #000000;stroke-opacity: 0.40;"/>
<polyline points="93.78,511.96 962.22,292.70" style="stroke-width: 0.75;stroke: #000000;stroke-opacity: 0.40;"/>
<polyline points="93.78,579.33 962.22,121.13" style="stroke-width: 0.75;stroke: #000000;stroke-opacity: 0.40;"/>
<polyline points="93.78,516.94 962.22,294.37" style="stroke-width: 0.75;stroke: #000000;stroke-opacity: 0.40;"/>
<polyline points="93.78,429.21 962.22,386.07" style="stroke-width: 0.75;stroke: #000000;stroke-opacity: 0.40;"/>
<polyline points="93.78,212.85 962.22,502.72" style="stroke-width: 0.75;stroke: #000000;stroke-opacity: 0.40;"/>
<polyline points="93.78,575.21 962.22,248.41" style="stroke-width: 0.75;stroke: #000000;stroke-opacity: 0.40;"/>
<polyline points="93.78,371.94 962.22,395.39" style="stroke-width: 0.75;stroke: #000000;stroke-opacity: 0.40;"/>
<polyline points="93.78,283.09 962.22,468.57" style="stroke-width: 0.75;stroke: #000000;stroke-opacity: 0.40;"/>
<polyline points="93.78,358.20 962.22,425.46" style="stroke-width: 0.75;stroke: #000000;stroke-opacity: 0.40;"/>
<polyline points="93.78,498.69 962.22,307.54" style="stroke-width: 0.75;stroke: #000000;stroke-opacity: 0.40;"/>
<polyline points="93.78,314.54 962.22,411.78" style="stroke-width: 0.75;stroke: #000000;stroke-opacity: 0.40;"/>
</g>
</svg>